<svg xmlns="http://www.w3.org/2000/svg" width="1280" height="720" viewBox="0 0 1280 720">
    <defs>
      <linearGradient id="bgGrad" x1="0%" y1="0%" x2="100%" y2="100%">
        <stop offset="0%" stop-color="#07111E"/>
        <stop offset="55%" stop-color="#0B182B"/>
        <stop offset="100%" stop-color="#06101B"/>
      </linearGradient>
      <linearGradient id="panelGrad" x1="0%" y1="0%" x2="100%" y2="100%">
        <stop offset="0%" stop-color="#132842" stop-opacity="0.96"/>
        <stop offset="100%" stop-color="#0D1B2F" stop-opacity="0.92"/>
      </linearGradient>
      <linearGradient id="indigoGrad" x1="0%" y1="0%" x2="100%" y2="100%">
        <stop offset="0%" stop-color="#6D7BFF"/>
        <stop offset="100%" stop-color="#4C5BEA"/>
      </linearGradient>
      <linearGradient id="cyanGrad" x1="0%" y1="0%" x2="100%" y2="100%">
        <stop offset="0%" stop-color="#42E8FF"/>
        <stop offset="100%" stop-color="#1AB7D8"/>
      </linearGradient>
      <linearGradient id="orangeGrad" x1="0%" y1="0%" x2="100%" y2="100%">
        <stop offset="0%" stop-color="#FF7A1A"/>
        <stop offset="100%" stop-color="#FFB15C"/>
      </linearGradient>
      <linearGradient id="lineGrad" x1="0%" y1="0%" x2="100%" y2="0%">
        <stop offset="0%" stop-color="#FF7A1A" stop-opacity="0"/>
        <stop offset="30%" stop-color="#FF7A1A" stop-opacity="0.85"/>
        <stop offset="70%" stop-color="#42E8FF" stop-opacity="0.75"/>
        <stop offset="100%" stop-color="#42E8FF" stop-opacity="0"/>
      </linearGradient>
      <radialGradient id="cyanGlow">
        <stop offset="0%" stop-color="#42E8FF" stop-opacity="0.55"/>
        <stop offset="100%" stop-color="#42E8FF" stop-opacity="0"/>
      </radialGradient>
      <radialGradient id="orangeGlow">
        <stop offset="0%" stop-color="#FF7A1A" stop-opacity="0.45"/>
        <stop offset="100%" stop-color="#FF7A1A" stop-opacity="0"/>
      </radialGradient>
      <radialGradient id="indigoGlow">
        <stop offset="0%" stop-color="#6D7BFF" stop-opacity="0.45"/>
        <stop offset="100%" stop-color="#6D7BFF" stop-opacity="0"/>
      </radialGradient>
      <pattern id="grain" width="120" height="120" patternUnits="userSpaceOnUse">
        <circle cx="14" cy="16" r="1" fill="#9CB3CF"/>
        <circle cx="54" cy="46" r="1" fill="#9CB3CF"/>
        <circle cx="92" cy="18" r="1" fill="#9CB3CF"/>
        <circle cx="88" cy="92" r="1" fill="#9CB3CF"/>
        <circle cx="20" cy="78" r="1" fill="#9CB3CF"/>
      </pattern>
      <filter id="shadow" x="-20%" y="-20%" width="140%" height="140%">
        <feDropShadow dx="0" dy="16" stdDeviation="18" flood-color="#000000" flood-opacity="0.24"/>
      </filter>
    </defs>
    
    
    <rect width="1280" height="720" fill="url(#bgGrad)"/>
    <rect width="1280" height="720" fill="url(#grain)" opacity="0.08"/>
    <g><line x1="0" y1="0" x2="0" y2="720" stroke="#8DA7C5" stroke-opacity="0.03" stroke-width="1"/><line x1="128" y1="0" x2="128" y2="720" stroke="#8DA7C5" stroke-opacity="0.03" stroke-width="1"/><line x1="256" y1="0" x2="256" y2="720" stroke="#8DA7C5" stroke-opacity="0.03" stroke-width="1"/><line x1="384" y1="0" x2="384" y2="720" stroke="#8DA7C5" stroke-opacity="0.03" stroke-width="1"/><line x1="512" y1="0" x2="512" y2="720" stroke="#8DA7C5" stroke-opacity="0.03" stroke-width="1"/><line x1="640" y1="0" x2="640" y2="720" stroke="#8DA7C5" stroke-opacity="0.03" stroke-width="1"/><line x1="768" y1="0" x2="768" y2="720" stroke="#8DA7C5" stroke-opacity="0.03" stroke-width="1"/><line x1="896" y1="0" x2="896" y2="720" stroke="#8DA7C5" stroke-opacity="0.03" stroke-width="1"/><line x1="1024" y1="0" x2="1024" y2="720" stroke="#8DA7C5" stroke-opacity="0.03" stroke-width="1"/><line x1="1152" y1="0" x2="1152" y2="720" stroke="#8DA7C5" stroke-opacity="0.03" stroke-width="1"/><line x1="1280" y1="0" x2="1280" y2="720" stroke="#8DA7C5" stroke-opacity="0.03" stroke-width="1"/><line x1="0" y1="0" x2="1280" y2="0" stroke="#8DA7C5" stroke-opacity="0.03" stroke-width="1"/><line x1="0" y1="128" x2="1280" y2="128" stroke="#8DA7C5" stroke-opacity="0.03" stroke-width="1"/><line x1="0" y1="256" x2="1280" y2="256" stroke="#8DA7C5" stroke-opacity="0.03" stroke-width="1"/><line x1="0" y1="384" x2="1280" y2="384" stroke="#8DA7C5" stroke-opacity="0.03" stroke-width="1"/><line x1="0" y1="512" x2="1280" y2="512" stroke="#8DA7C5" stroke-opacity="0.03" stroke-width="1"/><line x1="0" y1="640" x2="1280" y2="640" stroke="#8DA7C5" stroke-opacity="0.03" stroke-width="1"/></g>
    <circle cx="1120" cy="140" r="260" fill="url(#cyanGlow)" opacity="0.15"/>
    <circle cx="150" cy="620" r="220" fill="url(#orangeGlow)" opacity="0.15"/>
    
    <path d="M-40 652 C 160 590 308 612 492 534 S 810 368 1320 176" fill="none" stroke="url(#lineGrad)" stroke-width="2" stroke-linecap="round" opacity="0.62"/>
    <path d="M-20 630 C 190 560 352 578 522 512 S 846 342 1300 134" fill="none" stroke="#42E8FF" stroke-opacity="0.16" stroke-width="10" stroke-linecap="round"/>
    
    
    <g transform="translate(72,34)"><rect x="0" y="0" width="135" height="32" rx="16" fill="#0F2136" stroke="#315B8D" stroke-width="1"/><text x="67.5" y="21" text-anchor="middle" font-family="Geist Sans, 'PingFang SC', 'Microsoft YaHei', sans-serif" font-size="13" font-weight="600" fill="#9FB4CF">Smart Cabin</text></g>
    <text x="72" y="100" font-family="Geist Sans, 'PingFang SC', 'Microsoft YaHei', sans-serif" font-size="36" font-weight="700" fill="#F3F7FB">智能座舱：从“能联动”升级到“更像懂你的出行终端”</text>
    <rect x="72" y="112" width="96" height="4" rx="2" fill="url(#orangeGrad)"/>
    <g transform="translate(1172,34)">
      <rect x="0" y="0" width="56" height="34" rx="17" fill="#0F2136" stroke="#315B8D" stroke-width="1"/>
      <text x="28" y="23" text-anchor="middle" font-family="JetBrains Mono, SFMono-Regular, Menlo, monospace" font-size="16" font-weight="700" fill="#42E8FF">08</text>
    </g>
    
    <rect x="72" y="150" width="420" height="470" rx="30" fill="url(#panelGrad)" stroke="#23456B" stroke-width="1" filter="url(#shadow)" />
    <text x="102" y="194" font-family="Geist Sans, 'PingFang SC', 'Microsoft YaHei', sans-serif" font-size="16" font-weight="600" fill="#FFB15C">生态中枢</text>
    <circle cx="282" cy="388" r="104" fill="#0D2135" stroke="#315B8D" stroke-width="2"/>
    <circle cx="282" cy="388" r="62" fill="url(#cyanGrad)" opacity="0.95"/>
    <text x="282" y="384" text-anchor="middle" font-family="Geist Sans, 'PingFang SC', 'Microsoft YaHei', sans-serif" font-size="26" font-weight="800" fill="#052334">人 · 车 · 家</text>
    <text x="282" y="416" text-anchor="middle" font-family="Geist Sans, 'PingFang SC', 'Microsoft YaHei', sans-serif" font-size="17" font-weight="700" fill="#073141">同一个体验回路</text>
    <circle cx="172" cy="284" r="46" fill="#112941" stroke="#315B8D" stroke-width="2"/>
    <text x="172" y="292" text-anchor="middle" font-family="Geist Sans, 'PingFang SC', 'Microsoft YaHei', sans-serif" font-size="20" font-weight="700" fill="#F3F7FB">手机</text>
    <circle cx="390" cy="284" r="46" fill="#112941" stroke="#315B8D" stroke-width="2"/>
    <text x="390" y="292" text-anchor="middle" font-family="Geist Sans, 'PingFang SC', 'Microsoft YaHei', sans-serif" font-size="20" font-weight="700" fill="#F3F7FB">车机</text>
    <circle cx="172" cy="494" r="46" fill="#112941" stroke="#315B8D" stroke-width="2"/>
    <text x="172" y="502" text-anchor="middle" font-family="Geist Sans, 'PingFang SC', 'Microsoft YaHei', sans-serif" font-size="20" font-weight="700" fill="#F3F7FB">家居</text>
    <circle cx="390" cy="494" r="46" fill="#112941" stroke="#315B8D" stroke-width="2"/>
    <text x="390" y="502" text-anchor="middle" font-family="Geist Sans, 'PingFang SC', 'Microsoft YaHei', sans-serif" font-size="20" font-weight="700" fill="#F3F7FB">平板</text>
    <line x1="214" y1="314" x2="240" y2="336" stroke="#42E8FF" stroke-width="3"/>
    <line x1="350" y1="314" x2="324" y2="336" stroke="#42E8FF" stroke-width="3"/>
    <line x1="214" y1="464" x2="240" y2="442" stroke="#42E8FF" stroke-width="3"/>
    <line x1="350" y1="464" x2="324" y2="442" stroke="#42E8FF" stroke-width="3"/>

    <rect x="520" y="150" width="688" height="210" rx="30" fill="url(#panelGrad)" stroke="#23456B" stroke-width="1" filter="url(#shadow)" />
    <text x="552" y="194" font-family="Geist Sans, 'PingFang SC', 'Microsoft YaHei', sans-serif" font-size="16" font-weight="600" fill="#FFB15C">架构升级带来的“连接感”</text>
    <g transform="translate(552,226)"><rect x="0" y="0" width="137" height="32" rx="16" fill="#112941" stroke="#315B8D" stroke-width="1"/><text x="68.5" y="21" text-anchor="middle" font-family="Geist Sans, 'PingFang SC', 'Microsoft YaHei', sans-serif" font-size="13" font-weight="600" fill="#F3F7FB">双 5G 双卡双通</text></g>
    <g transform="translate(710,226)"><rect x="0" y="0" width="96" height="32" rx="16" fill="#112941" stroke="#315B8D" stroke-width="1"/><text x="48.0" y="21" text-anchor="middle" font-family="Geist Sans, 'PingFang SC', 'Microsoft YaHei', sans-serif" font-size="13" font-weight="600" fill="#F3F7FB">Wi-Fi 7</text></g>
    <g transform="translate(816,226)"><rect x="0" y="0" width="123" height="32" rx="16" fill="#112941" stroke="#315B8D" stroke-width="1"/><text x="61.5" y="21" text-anchor="middle" font-family="Geist Sans, 'PingFang SC', 'Microsoft YaHei', sans-serif" font-size="13" font-weight="600" fill="#F3F7FB">UWB 近场控车</text></g>
    <g transform="translate(966,226)"><rect x="0" y="0" width="95" height="32" rx="16" fill="#112941" stroke="#315B8D" stroke-width="1"/><text x="47.5" y="21" text-anchor="middle" font-family="Geist Sans, 'PingFang SC', 'Microsoft YaHei', sans-serif" font-size="13" font-weight="600" fill="#F3F7FB">内置 ETC</text></g>
    <text x="552" y="294" text-anchor="start" font-family="Geist Sans, 'PingFang SC', 'Microsoft YaHei', sans-serif" font-size="24" font-weight="700" fill="#F3F7FB"><tspan x="552" dy="0">这代座舱不是只做更大的信息屏，</tspan><tspan x="552" dy="+32.4">而是让连接更稳、交互更顺、设备之间更像一个整体</tspan></text>

    <rect x="520" y="386" width="688" height="234" rx="30" fill="url(#panelGrad)" stroke="#23456B" stroke-width="1" filter="url(#shadow)" />
    <text x="552" y="430" font-family="Geist Sans, 'PingFang SC', 'Microsoft YaHei', sans-serif" font-size="16" font-weight="600" fill="#42E8FF">高频使用场景</text>
    <circle cx="552" cy="466" r="4" fill="#FF7A1A"/><text x="568" y="472" text-anchor="start" font-family="Geist Sans, 'PingFang SC', 'Microsoft YaHei', sans-serif" font-size="18" font-weight="500" fill="#F3F7FB"><tspan x="568" dy="0">超级小爱支持深度车控、模糊语义导航、连续对话和车外语音控车</tspan></text><circle cx="552" cy="510" r="4" fill="#FF7A1A"/><text x="568" y="516" text-anchor="start" font-family="Geist Sans, 'PingFang SC', 'Microsoft YaHei', sans-serif" font-size="18" font-weight="500" fill="#F3F7FB"><tspan x="568" dy="0">后排移动控制屏 + 6</tspan><tspan x="568" dy="+23.0">屏联动，让全车交互不再只服务驾驶者</tspan></text><circle cx="552" cy="577" r="4" fill="#FF7A1A"/><text x="568" y="583" text-anchor="start" font-family="Geist Sans, 'PingFang SC', 'Microsoft YaHei', sans-serif" font-size="18" font-weight="500" fill="#F3F7FB"><tspan x="568" dy="0">小米生态用户能更自然地感受到“手机、车、家”是一套系统</tspan></text>
    
    <line x1="72" y1="674" x2="1208" y2="674" stroke="#294B71" stroke-width="1" stroke-opacity="0.55"/>
    <text x="72" y="694" font-family="Geist Sans, 'PingFang SC', 'Microsoft YaHei', sans-serif" font-size="11" fill="#6985A7">来源：小米发布会公开信息；电子电气架构与座舱能力按公开资料整理</text>
    
    </svg>