<svg xmlns="http://www.w3.org/2000/svg" width="1280" height="720" viewBox="0 0 1280 720">
    <defs>
      <linearGradient id="bgGrad" x1="0%" y1="0%" x2="100%" y2="100%">
        <stop offset="0%" stop-color="#07111E"/>
        <stop offset="55%" stop-color="#0B182B"/>
        <stop offset="100%" stop-color="#06101B"/>
      </linearGradient>
      <linearGradient id="panelGrad" x1="0%" y1="0%" x2="100%" y2="100%">
        <stop offset="0%" stop-color="#132842" stop-opacity="0.96"/>
        <stop offset="100%" stop-color="#0D1B2F" stop-opacity="0.92"/>
      </linearGradient>
      <linearGradient id="indigoGrad" x1="0%" y1="0%" x2="100%" y2="100%">
        <stop offset="0%" stop-color="#6D7BFF"/>
        <stop offset="100%" stop-color="#4C5BEA"/>
      </linearGradient>
      <linearGradient id="cyanGrad" x1="0%" y1="0%" x2="100%" y2="100%">
        <stop offset="0%" stop-color="#42E8FF"/>
        <stop offset="100%" stop-color="#1AB7D8"/>
      </linearGradient>
      <linearGradient id="orangeGrad" x1="0%" y1="0%" x2="100%" y2="100%">
        <stop offset="0%" stop-color="#FF7A1A"/>
        <stop offset="100%" stop-color="#FFB15C"/>
      </linearGradient>
      <linearGradient id="lineGrad" x1="0%" y1="0%" x2="100%" y2="0%">
        <stop offset="0%" stop-color="#FF7A1A" stop-opacity="0"/>
        <stop offset="30%" stop-color="#FF7A1A" stop-opacity="0.85"/>
        <stop offset="70%" stop-color="#42E8FF" stop-opacity="0.75"/>
        <stop offset="100%" stop-color="#42E8FF" stop-opacity="0"/>
      </linearGradient>
      <radialGradient id="cyanGlow">
        <stop offset="0%" stop-color="#42E8FF" stop-opacity="0.55"/>
        <stop offset="100%" stop-color="#42E8FF" stop-opacity="0"/>
      </radialGradient>
      <radialGradient id="orangeGlow">
        <stop offset="0%" stop-color="#FF7A1A" stop-opacity="0.45"/>
        <stop offset="100%" stop-color="#FF7A1A" stop-opacity="0"/>
      </radialGradient>
      <radialGradient id="indigoGlow">
        <stop offset="0%" stop-color="#6D7BFF" stop-opacity="0.45"/>
        <stop offset="100%" stop-color="#6D7BFF" stop-opacity="0"/>
      </radialGradient>
      <pattern id="grain" width="120" height="120" patternUnits="userSpaceOnUse">
        <circle cx="14" cy="16" r="1" fill="#9CB3CF"/>
        <circle cx="54" cy="46" r="1" fill="#9CB3CF"/>
        <circle cx="92" cy="18" r="1" fill="#9CB3CF"/>
        <circle cx="88" cy="92" r="1" fill="#9CB3CF"/>
        <circle cx="20" cy="78" r="1" fill="#9CB3CF"/>
      </pattern>
      <filter id="shadow" x="-20%" y="-20%" width="140%" height="140%">
        <feDropShadow dx="0" dy="16" stdDeviation="18" flood-color="#000000" flood-opacity="0.24"/>
      </filter>
    </defs>
    
    
    <rect width="1280" height="720" fill="url(#bgGrad)"/>
    <rect width="1280" height="720" fill="url(#grain)" opacity="0.08"/>
    <g><line x1="0" y1="0" x2="0" y2="720" stroke="#8DA7C5" stroke-opacity="0.03" stroke-width="1"/><line x1="128" y1="0" x2="128" y2="720" stroke="#8DA7C5" stroke-opacity="0.03" stroke-width="1"/><line x1="256" y1="0" x2="256" y2="720" stroke="#8DA7C5" stroke-opacity="0.03" stroke-width="1"/><line x1="384" y1="0" x2="384" y2="720" stroke="#8DA7C5" stroke-opacity="0.03" stroke-width="1"/><line x1="512" y1="0" x2="512" y2="720" stroke="#8DA7C5" stroke-opacity="0.03" stroke-width="1"/><line x1="640" y1="0" x2="640" y2="720" stroke="#8DA7C5" stroke-opacity="0.03" stroke-width="1"/><line x1="768" y1="0" x2="768" y2="720" stroke="#8DA7C5" stroke-opacity="0.03" stroke-width="1"/><line x1="896" y1="0" x2="896" y2="720" stroke="#8DA7C5" stroke-opacity="0.03" stroke-width="1"/><line x1="1024" y1="0" x2="1024" y2="720" stroke="#8DA7C5" stroke-opacity="0.03" stroke-width="1"/><line x1="1152" y1="0" x2="1152" y2="720" stroke="#8DA7C5" stroke-opacity="0.03" stroke-width="1"/><line x1="1280" y1="0" x2="1280" y2="720" stroke="#8DA7C5" stroke-opacity="0.03" stroke-width="1"/><line x1="0" y1="0" x2="1280" y2="0" stroke="#8DA7C5" stroke-opacity="0.03" stroke-width="1"/><line x1="0" y1="128" x2="1280" y2="128" stroke="#8DA7C5" stroke-opacity="0.03" stroke-width="1"/><line x1="0" y1="256" x2="1280" y2="256" stroke="#8DA7C5" stroke-opacity="0.03" stroke-width="1"/><line x1="0" y1="384" x2="1280" y2="384" stroke="#8DA7C5" stroke-opacity="0.03" stroke-width="1"/><line x1="0" y1="512" x2="1280" y2="512" stroke="#8DA7C5" stroke-opacity="0.03" stroke-width="1"/><line x1="0" y1="640" x2="1280" y2="640" stroke="#8DA7C5" stroke-opacity="0.03" stroke-width="1"/></g>
    <circle cx="1120" cy="140" r="260" fill="url(#cyanGlow)" opacity="0.15"/>
    <circle cx="150" cy="620" r="220" fill="url(#orangeGlow)" opacity="0.15"/>
    
    <path d="M-40 652 C 160 590 308 612 492 534 S 810 368 1320 176" fill="none" stroke="url(#lineGrad)" stroke-width="2" stroke-linecap="round" opacity="0.62"/>
    <path d="M-20 630 C 190 560 352 578 522 512 S 846 342 1300 134" fill="none" stroke="#42E8FF" stroke-opacity="0.16" stroke-width="10" stroke-linecap="round"/>
    
    
    <g transform="translate(72,34)"><rect x="0" y="0" width="165" height="32" rx="16" fill="#0F2136" stroke="#315B8D" stroke-width="1"/><text x="82.5" y="21" text-anchor="middle" font-family="Geist Sans, 'PingFang SC', 'Microsoft YaHei', sans-serif" font-size="13" font-weight="600" fill="#9FB4CF">Version Matrix</text></g>
    <text x="72" y="100" font-family="Geist Sans, 'PingFang SC', 'Microsoft YaHei', sans-serif" font-size="36" font-weight="700" fill="#F3F7FB">价格、版本与首销权益</text>
    <rect x="72" y="112" width="96" height="4" rx="2" fill="url(#orangeGrad)"/>
    <g transform="translate(1172,34)">
      <rect x="0" y="0" width="56" height="34" rx="17" fill="#0F2136" stroke="#315B8D" stroke-width="1"/>
      <text x="28" y="23" text-anchor="middle" font-family="JetBrains Mono, SFMono-Regular, Menlo, monospace" font-size="16" font-weight="700" fill="#42E8FF">03</text>
    </g>
    
    <text x="72" y="158" font-family="Geist Sans, 'PingFang SC', 'Microsoft YaHei', sans-serif" font-size="18" font-weight="600" fill="#9FB4CF">先把版本看明白，再去理解哪一个最适合自己</text>
    
    <rect x="72" y="190" width="344" height="420" rx="28" fill="url(#panelGrad)" stroke="#315B8D" stroke-width="1" filter="url(#shadow)" />
    <rect x="72" y="190" width="344" height="76" rx="28" fill="#0F2338" stroke="#315B8D" stroke-width="0"/>
    <text x="100" y="242" font-family="Geist Sans, 'PingFang SC', 'Microsoft YaHei', sans-serif" font-size="26" font-weight="700" fill="#42E8FF">标准版</text>
    <g transform="translate(96,208)"><rect x="0" y="0" width="98" height="32" rx="16" fill="#122A41" stroke="#315B8D" stroke-width="1"/><text x="49.0" y="21" text-anchor="middle" font-family="Geist Sans, 'PingFang SC', 'Microsoft YaHei', sans-serif" font-size="13" font-weight="600" fill="#FFB15C">入门即完整</text></g>
    
    <text x="100" y="350" font-family="JetBrains Mono, SFMono-Regular, Menlo, monospace" font-size="60" font-weight="800" fill="#F3F7FB">21.99</text>
    <text x="100" y="383" font-family="Geist Sans, 'PingFang SC', 'Microsoft YaHei', sans-serif" font-size="24" font-weight="600" fill="#9FB4CF">万元</text>
    <text x="100" y="434" font-family="Geist Sans, 'PingFang SC', 'Microsoft YaHei', sans-serif" font-size="18" font-weight="600" fill="#FFB15C">核心记忆点</text>
    <circle cx="104" cy="466" r="4" fill="#42E8FF"/><text x="120" y="472" text-anchor="start" font-family="Geist Sans, 'PingFang SC', 'Microsoft YaHei', sans-serif" font-size="18" font-weight="500" fill="#F3F7FB"><tspan x="120" dy="0">约 720km CLTC 续航</tspan></text><circle cx="104" cy="507" r="4" fill="#42E8FF"/><text x="120" y="513" text-anchor="start" font-family="Geist Sans, 'PingFang SC', 'Microsoft YaHei', sans-serif" font-size="18" font-weight="500" fill="#F3F7FB"><tspan x="120" dy="0">752V 高压平台</tspan></text><circle cx="104" cy="548" r="4" fill="#42E8FF"/><text x="120" y="554" text-anchor="start" font-family="Geist Sans, 'PingFang SC', 'Microsoft YaHei', sans-serif" font-size="18" font-weight="500" fill="#F3F7FB"><tspan x="120" dy="0">更适合预算明确、想一步到位入门</tspan></text>
    
    
    <rect x="468" y="190" width="344" height="420" rx="28" fill="#14253A" stroke="#FF7A1A" stroke-width="2" filter="url(#shadow)" />
    <rect x="468" y="190" width="344" height="76" rx="28" fill="url(#orangeGrad)" stroke="#FF7A1A" stroke-width="0"/>
    <text x="496" y="242" font-family="Geist Sans, 'PingFang SC', 'Microsoft YaHei', sans-serif" font-size="26" font-weight="700" fill="#2B1000">Pro 版</text>
    <g transform="translate(492,208)"><rect x="0" y="0" width="112" height="32" rx="16" fill="#2A1300" stroke="#FF7A1A" stroke-width="1"/><text x="56.0" y="21" text-anchor="middle" font-family="Geist Sans, 'PingFang SC', 'Microsoft YaHei', sans-serif" font-size="13" font-weight="600" fill="#FFD3A3">最长板最明显</text></g>
    <g transform="translate(716,208)"><rect x="0" y="0" width="84" height="32" rx="16" fill="#2A1300" stroke="#FF7A1A" stroke-width="1"/><text x="42.0" y="21" text-anchor="middle" font-family="Geist Sans, 'PingFang SC', 'Microsoft YaHei', sans-serif" font-size="13" font-weight="600" fill="#FFD3A3">主推版本</text></g>
    <text x="496" y="350" font-family="JetBrains Mono, SFMono-Regular, Menlo, monospace" font-size="60" font-weight="800" fill="#F3F7FB">24.99</text>
    <text x="496" y="383" font-family="Geist Sans, 'PingFang SC', 'Microsoft YaHei', sans-serif" font-size="24" font-weight="600" fill="#9FB4CF">万元</text>
    <text x="496" y="434" font-family="Geist Sans, 'PingFang SC', 'Microsoft YaHei', sans-serif" font-size="18" font-weight="600" fill="#FFB15C">核心记忆点</text>
    <circle cx="500" cy="466" r="4" fill="#42E8FF"/><text x="516" y="472" text-anchor="start" font-family="Geist Sans, 'PingFang SC', 'Microsoft YaHei', sans-serif" font-size="18" font-weight="500" fill="#F3F7FB"><tspan x="516" dy="0">902km CLTC 续航</tspan></text><circle cx="500" cy="507" r="4" fill="#42E8FF"/><text x="516" y="513" text-anchor="start" font-family="Geist Sans, 'PingFang SC', 'Microsoft YaHei', sans-serif" font-size="18" font-weight="500" fill="#F3F7FB"><tspan x="516" dy="0">752V 高压平台</tspan></text><circle cx="500" cy="548" r="4" fill="#42E8FF"/><text x="516" y="554" text-anchor="start" font-family="Geist Sans, 'PingFang SC', 'Microsoft YaHei', sans-serif" font-size="18" font-weight="500" fill="#F3F7FB"><tspan x="516" dy="0">最像销量主力，也最平衡</tspan></text>
    
    
    <rect x="864" y="190" width="344" height="420" rx="28" fill="url(#panelGrad)" stroke="#315B8D" stroke-width="1" filter="url(#shadow)" />
    <rect x="864" y="190" width="344" height="76" rx="28" fill="#0F2338" stroke="#315B8D" stroke-width="0"/>
    <text x="892" y="242" font-family="Geist Sans, 'PingFang SC', 'Microsoft YaHei', sans-serif" font-size="26" font-weight="700" fill="#42E8FF">Max 版</text>
    <g transform="translate(888,208)"><rect x="0" y="0" width="126" height="32" rx="16" fill="#122A41" stroke="#315B8D" stroke-width="1"/><text x="63.0" y="21" text-anchor="middle" font-family="Geist Sans, 'PingFang SC', 'Microsoft YaHei', sans-serif" font-size="13" font-weight="600" fill="#FFB15C">性能和豪华拉满</text></g>
    
    <text x="892" y="350" font-family="JetBrains Mono, SFMono-Regular, Menlo, monospace" font-size="60" font-weight="800" fill="#F3F7FB">30.39</text>
    <text x="892" y="383" font-family="Geist Sans, 'PingFang SC', 'Microsoft YaHei', sans-serif" font-size="24" font-weight="600" fill="#9FB4CF">万元</text>
    <text x="892" y="434" font-family="Geist Sans, 'PingFang SC', 'Microsoft YaHei', sans-serif" font-size="18" font-weight="600" fill="#FFB15C">核心记忆点</text>
    <circle cx="896" cy="466" r="4" fill="#42E8FF"/><text x="912" y="472" text-anchor="start" font-family="Geist Sans, 'PingFang SC', 'Microsoft YaHei', sans-serif" font-size="18" font-weight="500" fill="#F3F7FB"><tspan x="912" dy="0">835km CLTC / 3.08s</tspan></text><circle cx="896" cy="507" r="4" fill="#42E8FF"/><text x="912" y="513" text-anchor="start" font-family="Geist Sans, 'PingFang SC', 'Microsoft YaHei', sans-serif" font-size="18" font-weight="500" fill="#F3F7FB"><tspan x="912" dy="0">897V 高压平台</tspan></text><circle cx="896" cy="548" r="4" fill="#42E8FF"/><text x="912" y="554" text-anchor="start" font-family="Geist Sans, 'PingFang SC', 'Microsoft YaHei', sans-serif" font-size="18" font-weight="500" fill="#F3F7FB"><tspan x="912" dy="0">更适合追求性能与高级配置</tspan></text>
    
    <rect x="72" y="628" width="1136" height="40" rx="20" fill="#0C1B2E" stroke="#315B8D" stroke-width="1" filter="url(#shadow)" />
    <line x1="356" y1="636" x2="356" y2="660" stroke="#315B8D" stroke-width="1"/>
    <line x1="640" y1="636" x2="640" y2="660" stroke="#315B8D" stroke-width="1"/>
    <line x1="924" y1="636" x2="924" y2="660" stroke="#315B8D" stroke-width="1"/>
    <text x="108" y="654" font-family="Geist Sans, 'PingFang SC', 'Microsoft YaHei', sans-serif" font-size="14" font-weight="600" fill="#F3F7FB">5000 元定金</text>
    <text x="392" y="654" font-family="Geist Sans, 'PingFang SC', 'Microsoft YaHei', sans-serif" font-size="14" font-weight="600" fill="#42E8FF">3 天内未锁单可退</text>
    <text x="676" y="654" font-family="Geist Sans, 'PingFang SC', 'Microsoft YaHei', sans-serif" font-size="14" font-weight="600" fill="#FFB15C">3.22 前可改配</text>
    <text x="960" y="654" font-family="Geist Sans, 'PingFang SC', 'Microsoft YaHei', sans-serif" font-size="14" font-weight="600" fill="#F3F7FB">首发权益 4.4 万 / 6.9 万</text>
    
    <line x1="72" y1="674" x2="1208" y2="674" stroke="#294B71" stroke-width="1" stroke-opacity="0.55"/>
    <text x="72" y="694" font-family="Geist Sans, 'PingFang SC', 'Microsoft YaHei', sans-serif" font-size="11" fill="#6985A7">来源：小米发布会公开信息、IT之家；标准版 / Pro 版首发权益合计 4.4 万元，Max 版合计 6.9 万元</text>
    
    </svg>