<svg xmlns="http://www.w3.org/2000/svg" width="1280" height="720" viewBox="0 0 1280 720">
    <defs>
      <linearGradient id="bgGrad" x1="0%" y1="0%" x2="100%" y2="100%">
        <stop offset="0%" stop-color="#07111E"/>
        <stop offset="55%" stop-color="#0B182B"/>
        <stop offset="100%" stop-color="#06101B"/>
      </linearGradient>
      <linearGradient id="panelGrad" x1="0%" y1="0%" x2="100%" y2="100%">
        <stop offset="0%" stop-color="#132842" stop-opacity="0.96"/>
        <stop offset="100%" stop-color="#0D1B2F" stop-opacity="0.92"/>
      </linearGradient>
      <linearGradient id="indigoGrad" x1="0%" y1="0%" x2="100%" y2="100%">
        <stop offset="0%" stop-color="#6D7BFF"/>
        <stop offset="100%" stop-color="#4C5BEA"/>
      </linearGradient>
      <linearGradient id="cyanGrad" x1="0%" y1="0%" x2="100%" y2="100%">
        <stop offset="0%" stop-color="#42E8FF"/>
        <stop offset="100%" stop-color="#1AB7D8"/>
      </linearGradient>
      <linearGradient id="orangeGrad" x1="0%" y1="0%" x2="100%" y2="100%">
        <stop offset="0%" stop-color="#FF7A1A"/>
        <stop offset="100%" stop-color="#FFB15C"/>
      </linearGradient>
      <linearGradient id="lineGrad" x1="0%" y1="0%" x2="100%" y2="0%">
        <stop offset="0%" stop-color="#FF7A1A" stop-opacity="0"/>
        <stop offset="30%" stop-color="#FF7A1A" stop-opacity="0.85"/>
        <stop offset="70%" stop-color="#42E8FF" stop-opacity="0.75"/>
        <stop offset="100%" stop-color="#42E8FF" stop-opacity="0"/>
      </linearGradient>
      <radialGradient id="cyanGlow">
        <stop offset="0%" stop-color="#42E8FF" stop-opacity="0.55"/>
        <stop offset="100%" stop-color="#42E8FF" stop-opacity="0"/>
      </radialGradient>
      <radialGradient id="orangeGlow">
        <stop offset="0%" stop-color="#FF7A1A" stop-opacity="0.45"/>
        <stop offset="100%" stop-color="#FF7A1A" stop-opacity="0"/>
      </radialGradient>
      <radialGradient id="indigoGlow">
        <stop offset="0%" stop-color="#6D7BFF" stop-opacity="0.45"/>
        <stop offset="100%" stop-color="#6D7BFF" stop-opacity="0"/>
      </radialGradient>
      <pattern id="grain" width="120" height="120" patternUnits="userSpaceOnUse">
        <circle cx="14" cy="16" r="1" fill="#9CB3CF"/>
        <circle cx="54" cy="46" r="1" fill="#9CB3CF"/>
        <circle cx="92" cy="18" r="1" fill="#9CB3CF"/>
        <circle cx="88" cy="92" r="1" fill="#9CB3CF"/>
        <circle cx="20" cy="78" r="1" fill="#9CB3CF"/>
      </pattern>
      <filter id="shadow" x="-20%" y="-20%" width="140%" height="140%">
        <feDropShadow dx="0" dy="16" stdDeviation="18" flood-color="#000000" flood-opacity="0.24"/>
      </filter>
    </defs>
    
    
    <rect width="1280" height="720" fill="url(#bgGrad)"/>
    <rect width="1280" height="720" fill="url(#grain)" opacity="0.08"/>
    <g><line x1="0" y1="0" x2="0" y2="720" stroke="#8DA7C5" stroke-opacity="0.03" stroke-width="1"/><line x1="128" y1="0" x2="128" y2="720" stroke="#8DA7C5" stroke-opacity="0.03" stroke-width="1"/><line x1="256" y1="0" x2="256" y2="720" stroke="#8DA7C5" stroke-opacity="0.03" stroke-width="1"/><line x1="384" y1="0" x2="384" y2="720" stroke="#8DA7C5" stroke-opacity="0.03" stroke-width="1"/><line x1="512" y1="0" x2="512" y2="720" stroke="#8DA7C5" stroke-opacity="0.03" stroke-width="1"/><line x1="640" y1="0" x2="640" y2="720" stroke="#8DA7C5" stroke-opacity="0.03" stroke-width="1"/><line x1="768" y1="0" x2="768" y2="720" stroke="#8DA7C5" stroke-opacity="0.03" stroke-width="1"/><line x1="896" y1="0" x2="896" y2="720" stroke="#8DA7C5" stroke-opacity="0.03" stroke-width="1"/><line x1="1024" y1="0" x2="1024" y2="720" stroke="#8DA7C5" stroke-opacity="0.03" stroke-width="1"/><line x1="1152" y1="0" x2="1152" y2="720" stroke="#8DA7C5" stroke-opacity="0.03" stroke-width="1"/><line x1="1280" y1="0" x2="1280" y2="720" stroke="#8DA7C5" stroke-opacity="0.03" stroke-width="1"/><line x1="0" y1="0" x2="1280" y2="0" stroke="#8DA7C5" stroke-opacity="0.03" stroke-width="1"/><line x1="0" y1="128" x2="1280" y2="128" stroke="#8DA7C5" stroke-opacity="0.03" stroke-width="1"/><line x1="0" y1="256" x2="1280" y2="256" stroke="#8DA7C5" stroke-opacity="0.03" stroke-width="1"/><line x1="0" y1="384" x2="1280" y2="384" stroke="#8DA7C5" stroke-opacity="0.03" stroke-width="1"/><line x1="0" y1="512" x2="1280" y2="512" stroke="#8DA7C5" stroke-opacity="0.03" stroke-width="1"/><line x1="0" y1="640" x2="1280" y2="640" stroke="#8DA7C5" stroke-opacity="0.03" stroke-width="1"/></g>
    <circle cx="1120" cy="140" r="260" fill="url(#cyanGlow)" opacity="0.15"/>
    <circle cx="150" cy="620" r="220" fill="url(#orangeGlow)" opacity="0.15"/>
    
    <path d="M-40 652 C 160 590 308 612 492 534 S 810 368 1320 176" fill="none" stroke="url(#lineGrad)" stroke-width="2" stroke-linecap="round" opacity="0.62"/>
    <path d="M-20 630 C 190 560 352 578 522 512 S 846 342 1300 134" fill="none" stroke="#42E8FF" stroke-opacity="0.16" stroke-width="10" stroke-linecap="round"/>
    
    
    <g transform="translate(72,34)"><rect x="0" y="0" width="175" height="32" rx="16" fill="#0F2136" stroke="#315B8D" stroke-width="1"/><text x="87.5" y="21" text-anchor="middle" font-family="Geist Sans, 'PingFang SC', 'Microsoft YaHei', sans-serif" font-size="13" font-weight="600" fill="#9FB4CF">Design Language</text></g>
    <text x="72" y="100" font-family="Geist Sans, 'PingFang SC', 'Microsoft YaHei', sans-serif" font-size="36" font-weight="700" fill="#F3F7FB">设计焕新：经典比例继续，细节更有性能感</text>
    <rect x="72" y="112" width="96" height="4" rx="2" fill="url(#orangeGrad)"/>
    <g transform="translate(1172,34)">
      <rect x="0" y="0" width="56" height="34" rx="17" fill="#0F2136" stroke="#315B8D" stroke-width="1"/>
      <text x="28" y="23" text-anchor="middle" font-family="JetBrains Mono, SFMono-Regular, Menlo, monospace" font-size="16" font-weight="700" fill="#42E8FF">04</text>
    </g>
    
    <rect x="72" y="150" width="650" height="454" rx="30" fill="url(#panelGrad)" stroke="#23456B" stroke-width="1" filter="url(#shadow)" />
    <text x="108" y="194" font-family="Geist Sans, 'PingFang SC', 'Microsoft YaHei', sans-serif" font-size="17" font-weight="600" fill="#FFB15C">视觉主张</text>
    <text x="108" y="230" font-family="Geist Sans, 'PingFang SC', 'Microsoft YaHei', sans-serif" font-size="28" font-weight="700" fill="#F3F7FB">保留成功比例，用细节把“成熟性能感”做出来</text>
    <path d="M168 466 C 228 398 316 352 428 340 C 492 334 576 352 642 408" fill="none" stroke="#89F2FF" stroke-opacity="0.18" stroke-width="20" stroke-linecap="round"/>
    <path d="M166 490 C 246 410 330 378 442 376 C 516 374 594 394 648 438" fill="none" stroke="url(#cyanGrad)" stroke-width="4" stroke-linecap="round"/>
    <circle cx="260" cy="514" r="42" fill="none" stroke="#FF7A1A" stroke-width="4"/>
    <circle cx="570" cy="514" r="42" fill="none" stroke="#FF7A1A" stroke-width="4"/>
    <path d="M210 514 L 340 514 L 416 448 L 536 448 L 618 490" fill="none" stroke="#F3F7FB" stroke-width="4" stroke-linecap="round" stroke-linejoin="round"/>
    <text x="126" y="548" font-family="Geist Sans, 'PingFang SC', 'Microsoft YaHei', sans-serif" font-size="14" fill="#6985A7">4997mm 车长</text>
    <text x="332" y="548" font-family="Geist Sans, 'PingFang SC', 'Microsoft YaHei', sans-serif" font-size="14" fill="#6985A7">3000mm 轴距</text>
    <text x="522" y="546" font-family="Geist Sans, 'PingFang SC', 'Microsoft YaHei', sans-serif" font-size="14" fill="#6985A7">1963mm 车宽</text>
    <g transform="translate(108,590)"><rect x="0" y="0" width="112" height="32" rx="16" fill="#112941" stroke="#315B8D" stroke-width="1"/><text x="56.0" y="21" text-anchor="middle" font-family="Geist Sans, 'PingFang SC', 'Microsoft YaHei', sans-serif" font-size="13" font-weight="600" fill="#F3F7FB">低趴轿跑比例</text></g>
    <g transform="translate(270,590)"><rect x="0" y="0" width="98" height="32" rx="16" fill="#112941" stroke="#315B8D" stroke-width="1"/><text x="49.0" y="21" text-anchor="middle" font-family="Geist Sans, 'PingFang SC', 'Microsoft YaHei', sans-serif" font-size="13" font-weight="600" fill="#F3F7FB">新进气格栅</text></g>
    <g transform="translate(412,590)"><rect x="0" y="0" width="112" height="32" rx="16" fill="#112941" stroke="#315B8D" stroke-width="1"/><text x="56.0" y="21" text-anchor="middle" font-family="Geist Sans, 'PingFang SC', 'Microsoft YaHei', sans-serif" font-size="13" font-weight="600" fill="#F3F7FB">高辨识度尾灯</text></g>

    <rect x="756" y="150" width="452" height="236" rx="28" fill="url(#panelGrad)" stroke="#23456B" stroke-width="1" filter="url(#shadow)" />
    <text x="780" y="190" font-family="Geist Sans, 'PingFang SC', 'Microsoft YaHei', sans-serif" font-size="18" font-weight="700" fill="#42E8FF">颜色策略更完整，但表达更克制</text>
    <text x="780" y="220" font-family="Geist Sans, 'PingFang SC', 'Microsoft YaHei', sans-serif" font-size="14" font-weight="600" fill="#9FB4CF">全系共 9 种颜色，重点记住 3 个最容易形成记忆点的新表达</text>
    <circle cx="796" cy="258" r="16" fill="#5DB5FF" stroke="#E8EEF4" stroke-opacity="0.25" stroke-width="1"/>
    <text x="824" y="264" font-family="Geist Sans, 'PingFang SC', 'Microsoft YaHei', sans-serif" font-size="17" font-weight="700" fill="#F3F7FB">卡布里蓝</text>
    <text x="824" y="284" font-family="Geist Sans, 'PingFang SC', 'Microsoft YaHei', sans-serif" font-size="12" fill="#9FB4CF">轻盈年轻，传播感最强</text>
    <circle cx="796" cy="310" r="16" fill="#E5413C" stroke="#E8EEF4" stroke-opacity="0.25" stroke-width="1"/>
    <text x="824" y="316" font-family="Geist Sans, 'PingFang SC', 'Microsoft YaHei', sans-serif" font-size="17" font-weight="700" fill="#F3F7FB">赤霞红</text>
    <text x="824" y="336" font-family="Geist Sans, 'PingFang SC', 'Microsoft YaHei', sans-serif" font-size="12" fill="#9FB4CF">更热烈，也更有性能张力</text>
    <circle cx="796" cy="362" r="16" fill="#406A62" stroke="#E8EEF4" stroke-opacity="0.25" stroke-width="1"/>
    <text x="824" y="368" font-family="Geist Sans, 'PingFang SC', 'Microsoft YaHei', sans-serif" font-size="17" font-weight="700" fill="#F3F7FB">靛石绿</text>
    <text x="824" y="388" font-family="Geist Sans, 'PingFang SC', 'Microsoft YaHei', sans-serif" font-size="12" fill="#9FB4CF">低调高级，更偏成熟豪华路线</text>

    <rect x="756" y="410" width="216" height="194" rx="28" fill="url(#panelGrad)" stroke="#23456B" stroke-width="1" filter="url(#shadow)" />
    <text x="780" y="438" font-family="Geist Sans, 'PingFang SC', 'Microsoft YaHei', sans-serif" font-size="16" font-weight="600" fill="#FFB15C">第一眼变化</text>
    <circle cx="780" cy="468" r="4" fill="#42E8FF"/><text x="796" y="474" text-anchor="start" font-family="Geist Sans, 'PingFang SC', 'Microsoft YaHei', sans-serif" font-size="16" font-weight="500" fill="#F3F7FB"><tspan x="796" dy="0">更有冲击力的前脸</tspan></text><circle cx="780" cy="505" r="4" fill="#42E8FF"/><text x="796" y="511" text-anchor="start" font-family="Geist Sans, 'PingFang SC', 'Microsoft YaHei', sans-serif" font-size="16" font-weight="500" fill="#F3F7FB"><tspan x="796" dy="0">更运动的轮毂细节</tspan></text><circle cx="780" cy="542" r="4" fill="#42E8FF"/><text x="796" y="548" text-anchor="start" font-family="Geist Sans, 'PingFang SC', 'Microsoft YaHei', sans-serif" font-size="16" font-weight="500" fill="#F3F7FB"><tspan x="796" dy="0">整车贵感被拉高</tspan></text>

    <rect x="992" y="410" width="216" height="194" rx="28" fill="url(#panelGrad)" stroke="#23456B" stroke-width="1" filter="url(#shadow)" />
    <text x="1016" y="438" font-family="Geist Sans, 'PingFang SC', 'Microsoft YaHei', sans-serif" font-size="16" font-weight="600" fill="#FFB15C">真实价值</text>
    <circle cx="1016" cy="468" r="4" fill="#42E8FF"/><text x="1032" y="474" text-anchor="start" font-family="Geist Sans, 'PingFang SC', 'Microsoft YaHei', sans-serif" font-size="16" font-weight="500" fill="#F3F7FB"><tspan x="1032" dy="0">熟悉感还在</tspan></text><circle cx="1016" cy="505" r="4" fill="#42E8FF"/><text x="1032" y="511" text-anchor="start" font-family="Geist Sans, 'PingFang SC', 'Microsoft YaHei', sans-serif" font-size="16" font-weight="500" fill="#F3F7FB"><tspan x="1032" dy="0">更像成熟性能车</tspan></text><circle cx="1016" cy="542" r="4" fill="#42E8FF"/><text x="1032" y="548" text-anchor="start" font-family="Geist Sans, 'PingFang SC', 'Microsoft YaHei', sans-serif" font-size="16" font-weight="500" fill="#F3F7FB"><tspan x="1032" dy="0">传播辨识度更高</tspan></text>
    
    <line x1="72" y1="674" x2="1208" y2="674" stroke="#294B71" stroke-width="1" stroke-opacity="0.55"/>
    <text x="72" y="694" font-family="Geist Sans, 'PingFang SC', 'Microsoft YaHei', sans-serif" font-size="11" fill="#6985A7">来源：小米发布会公开信息、搜狐汽车长文整理；车色命名与尺寸数据以公开信息为准</text>
    
    </svg>