<svg xmlns="http://www.w3.org/2000/svg" width="1280" height="720" viewBox="0 0 1280 720">
<rect width="1280" height="720" fill="#ffffff"/>
<rect x="0" y="0" width="1280" height="90" fill="#1a365d"/>
<rect x="0" y="0" width="6" height="90" fill="#e67e22"/>
<text x="40" y="58" font-family="system-ui" font-size="32" font-weight="700" fill="#ffffff">设计美学</text><text x="280" y="58" font-family="system-ui" font-size="18" fill="rgba(255,255,255,0.7)">经得起时间考验</text>
<rect x="50" y="130" width="570" height="300" rx="16" fill="#f0f4f8"/><rect x="50" y="130" width="570" height="60" fill="#1a365d"/><text x="100" y="172" font-family="system-ui" font-size="24" font-weight="700" fill="#ffffff">外观延续经典</text><text x="100" y="240" font-family="system-ui" font-size="40" font-weight="800" fill="#1a365d">5米车长 · 2米车宽 · 3米轴距</text><text x="100" y="290" font-family="system-ui" font-size="18" fill="#666">✓ 标志性水滴大灯</text><text x="100" y="330" font-family="system-ui" font-size="18" fill="#666">✓ 家族式光环尾灯</text><text x="100" y="370" font-family="system-ui" font-size="18" fill="#666">✓ C级豪华轿车比例</text>
<rect x="650" y="130" width="580" height="300" rx="16" fill="#f0f4f8"/><rect x="650" y="130" width="580" height="60" fill="#1a365d"/><text x="700" y="172" font-family="system-ui" font-size="24" font-weight="700" fill="#ffffff">细节焕新升级</text><text x="700" y="250" font-family="system-ui" font-size="16" fill="#666">✓ 全新进气格栅设计</text><text x="700" y="290" font-family="system-ui" font-size="16" fill="#666">✓ 内置4D毫米波雷达</text><text x="700" y="330" font-family="system-ui" font-size="16" fill="#666">✓ 远光照射提升至400米</text><text x="700" y="370" font-family="system-ui" font-size="16" fill="#666">✓ 前后摄像头高压清洗</text>
<rect x="50" y="460" width="1180" height="120" rx="12" fill="#1a365d"/><text x="100" y="520" font-family="system-ui" font-size="28" font-weight="700" fill="#ffffff">延续经典设计语言，细节打磨更精致</text><text x="100" y="555" font-family="system-ui" font-size="16" fill="rgba(255,255,255,0.8)">做经得起时间考验的设计</text>
</svg>