<svg xmlns="http://www.w3.org/2000/svg" width="1280" height="720" viewBox="0 0 1280 720">
<rect width="1280" height="720" fill="#ffffff"/>
<rect x="0" y="0" width="1280" height="90" fill="#1a365d"/>
<rect x="0" y="0" width="6" height="90" fill="#e67e22"/>
<text x="40" y="58" font-family="system-ui" font-size="32" font-weight="700" fill="#ffffff">底盘升级：蛟龙出击</text>
<rect x="50" y="130" width="360" height="140" rx="12" fill="#f0f4f8"/><rect x="50" y="130" width="360" height="50" fill="#1a365d"/><text x="80" y="165" font-family="system-ui" font-size="16" font-weight="700" fill="#ffffff">前双叉臂+后五连杆</text><text x="80" y="220" font-family="system-ui" font-size="14" fill="#666">运动与舒适的完美平衡</text>
<rect x="430" y="130" width="360" height="140" rx="12" fill="#f0f4f8"/><rect x="430" y="130" width="360" height="50" fill="#1a365d"/><text x="460" y="165" font-family="system-ui" font-size="16" font-weight="700" fill="#ffffff">闭式双腔空悬(Pro/Max)</text><text x="460" y="220" font-family="system-ui" font-size="14" fill="#666">软硬调节区间更大</text>
<rect x="810" y="130" width="420" height="140" rx="12" fill="#f0f4f8"/><rect x="810" y="130" width="420" height="50" fill="#1a365d"/><text x="840" y="165" font-family="system-ui" font-size="16" font-weight="700" fill="#ffffff">CDC自适应减振(Pro/Max)</text><text x="840" y="220" font-family="system-ui" font-size="14" fill="#666">实时调节阻尼</text>
<rect x="50" y="300" width="560" height="140" rx="12" fill="#f0f4f8"/><rect x="50" y="300" width="560" height="50" fill="#1a365d"/><text x="80" y="335" font-family="system-ui" font-size="16" font-weight="700" fill="#ffffff">前四活塞固定卡钳</text><text x="80" y="400" font-family="system-ui" font-size="14" fill="#666">全系标配 · 制动性能出色</text>
<rect x="630" y="300" width="600" height="140" rx="12" fill="#f0f4f8"/><rect x="630" y="300" width="600" height="50" fill="#1a365d"/><text x="660" y="335" font-family="system-ui" font-size="16" font-weight="700" fill="#ffffff">前245/后265宽胎</text><text x="660" y="400" font-family="system-ui" font-size="14" fill="#666">全系标配 · 提升操控稳定性</text>
<rect x="50" y="480" width="1180" height="120" rx="12" fill="#1a365d"/><text x="100" y="535" font-family="system-ui" font-size="24" font-weight="700" fill="#ffffff">自研蛟龙底盘 · 兼顾舒适与运动</text><text x="100" y="570" font-family="system-ui" font-size="16" fill="rgba(255,255,255,0.8)">软硬深度融合的高性能智能底盘系统，专为驾驶者打造</text>
</svg>