<svg xmlns="http://www.w3.org/2000/svg" width="1280" height="720" viewBox="0 0 1280 720">
<rect width="1280" height="720" fill="#ffffff"/>
<rect x="0" y="0" width="1280" height="90" fill="#1a365d"/>
<rect x="0" y="0" width="6" height="90" fill="#e67e22"/>
<text x="40" y="58" font-family="system-ui" font-size="32" font-weight="700" fill="#ffffff">智能驾驶：全系标配激光雷达</text>
<rect x="50" y="130" width="500" height="300" rx="16" fill="#1a365d"/><text x="300" y="240" text-anchor="middle" font-family="system-ui" font-size="100" font-weight="900" fill="#e67e22">700</text><text x="300" y="320" text-anchor="middle" font-family="system-ui" font-size="32" fill="#ffffff">TOPS</text><text x="300" y="370" text-anchor="middle" font-family="system-ui" font-size="18" fill="rgba(255,255,255,0.7)">英伟达Drive Thor芯片</text>
<rect x="580" y="130" width="340" height="140" rx="12" fill="#f0f4f8"/><text x="620" y="180" font-family="system-ui" font-size="16" fill="#666">✓ 全系激光雷达</text><text x="620" y="210" font-family="system-ui" font-size="16" fill="#666">✓ 全系4D毫米波雷达</text><text x="620" y="240" font-family="system-ui" font-size="16" fill="#666">✓ 全系11颗高清摄像头</text><text x="620" y="270" font-family="system-ui" font-size="16" fill="#666">✓ Xiaomi HAD端到端智驾</text>
<rect x="950" y="130" width="280" height="300" rx="12" fill="#f0f4f8"/><text x="1090" y="200" text-anchor="middle" font-family="system-ui" font-size="18" fill="#1a365d">Xiaomi XLA认知大模型</text><text x="1090" y="250" text-anchor="middle" font-family="system-ui" font-size="14" fill="#666">多模态空间感知</text><text x="1090" y="290" text-anchor="middle" font-family="system-ui" font-size="14" fill="#666">增强推理能力</text><text x="1090" y="350" text-anchor="middle" font-family="system-ui" font-size="16" fill="#e67e22">Max版城市NOA</text>
<rect x="580" y="300" width="650" height="130" rx="12" fill="#f0f4f8"/><text x="620" y="350" font-family="system-ui" font-size="16" fill="#666">Xiaomi XLA认知大模型</text><text x="620" y="390" font-family="system-ui" font-size="14" fill="#666">融入多模态数据，提升通用理解能力</text><rect x="50" y="460" width="1180" height="120" rx="12" fill="#e67e22"/><text x="100" y="515" font-family="system-ui" font-size="24" font-weight="700" fill="#ffffff">智能驾驶全系标配，不再是高配专属</text>
</svg>